<svg width="48" height="48" viewBox="0 0 48 48" fill="none" xmlns="http://www.w3.org/2000/svg">
<circle cx="24" cy="24" r="23" transform="matrix(-1 0 0 1 48 0)" fill="#171717" stroke="#FFF8E7" stroke-width="2"/>
<path d="M16.8913 24.7071C16.5008 24.3166 16.5008 23.6834 16.8913 23.2929L23.2553 16.9289C23.6458 16.5384 24.279 16.5384 24.6695 16.9289C25.06 17.3195 25.06 17.9526 24.6695 18.3431L19.0127 24L24.6695 29.6569C25.06 30.0474 25.06 30.6805 24.6695 31.0711C24.279 31.4616 23.6458 31.4616 23.2553 31.0711L16.8913 24.7071ZM30.3984 25L17.5984 25L17.5984 23L30.3984 23L30.3984 25Z" fill="#FFF8E7"/>
</svg>
