<svg width="67" height="67" viewBox="0 0 67 67" fill="none" xmlns="http://www.w3.org/2000/svg">
<g clip-path="url(#clip0_951_1123)">
<path d="M66.0443 32.3841L34.6157 0.955492C34.0029 0.342635 33.0129 0.342635 32.4 0.955492L0.955737 32.3841C0.342879 32.9969 0.342879 33.9869 0.955737 34.5998C1.56859 35.2126 2.55859 35.2126 3.17145 34.5998L33.5 4.28692L58.3757 29.1626V63.1684L42.9286 63.3255V47.6269C42.9286 46.7626 42.2215 46.0555 41.3572 46.0555H25.6429C24.7786 46.0555 24.0715 46.7626 24.0715 47.6269V63.3412H8.35717V42.9126C8.35717 42.0484 7.65002 41.3412 6.78574 41.3412C5.92145 41.3412 5.21431 42.0484 5.21431 42.9126V64.9126C5.21431 65.7769 5.92145 66.4841 6.78574 66.4841H25.6429C26.5072 66.4841 27.2143 65.7769 27.2143 64.9126V49.1984H39.7857V64.9126C39.7857 65.3369 39.9586 65.7298 40.2572 66.0284C40.5557 66.3269 40.9643 66.4841 41.3729 66.4841L59.9629 66.2955C60.8272 66.2955 61.5186 65.5883 61.5186 64.7241V32.3055L63.8129 34.5998C64.1272 34.9141 64.52 35.0555 64.9286 35.0555C65.3372 35.0555 65.73 34.8984 66.0443 34.5998C66.6572 33.9869 66.6572 32.9969 66.0443 32.3841Z" fill="#FFF8E7"/>
</g>
<defs>
<clipPath id="clip0_951_1123">
<rect width="66" height="66" fill="white" transform="translate(0.5 0.5)"/>
</clipPath>
</defs>
</svg>
