<svg width="309" height="282" viewBox="0 0 309 282" fill="none" xmlns="http://www.w3.org/2000/svg">
<path d="M90 0H10C4.47715 0 0 4.47715 0 10C0 15.5228 4.47716 20 10 20H90C95.5229 20 100 15.5228 100 10C100 4.47715 95.5228 0 90 0Z" fill="#FEF7E6"/>
<path d="M118.922 10C118.922 15.5228 123.399 20 128.922 20C134.445 20 138.922 15.5228 138.922 10C138.922 4.47715 134.445 0 128.922 0C123.399 0 118.922 4.47715 118.922 10Z" fill="#FEF7E6"/>
<path d="M166.422 10H742.022" stroke="#FEF7E6" stroke-width="2" stroke-miterlimit="10"/>
<path d="M270.379 95.3301C270.379 100.853 274.856 105.33 280.379 105.33C285.902 105.33 290.379 100.853 290.379 95.3301C290.379 89.8072 285.902 85.3301 280.379 85.3301C274.856 85.3301 270.379 89.8072 270.379 95.3301Z" fill="#FEF7E6"/>
<path d="M234.23 85.3301H74.2305C68.7076 85.3301 64.2305 89.8072 64.2305 95.3301C64.2305 100.853 68.7076 105.33 74.2305 105.33H234.23C239.753 105.33 244.23 100.853 244.23 95.3301C244.23 89.8072 239.753 85.3301 234.23 85.3301Z" stroke="#FEF7E6" stroke-width="2" stroke-miterlimit="10"/>
<path d="M294.831 143.82H155.371C149.848 143.82 145.371 148.297 145.371 153.82C145.371 159.343 149.848 163.82 155.371 163.82H294.831C300.354 163.82 304.831 159.343 304.831 153.82C304.831 148.297 300.354 143.82 294.831 143.82Z" fill="#FEF7E6"/>
<path d="M200.531 222.3L360.531 222.3C366.054 222.3 370.531 217.823 370.531 212.3C370.531 206.777 366.054 202.3 360.531 202.3L200.531 202.3C195.008 202.3 190.531 206.777 190.531 212.3C190.531 217.823 195.008 222.3 200.531 222.3Z" stroke="#FEF7E6" stroke-width="2" stroke-miterlimit="10"/>
<path d="M66.3711 222.3H146.371C151.894 222.3 156.371 217.823 156.371 212.3C156.371 206.777 151.894 202.3 146.371 202.3H66.3711C60.8482 202.3 56.3711 206.777 56.3711 212.3C56.3711 217.823 60.8483 222.3 66.3711 222.3Z" fill="#FEF7E6"/>
<path d="M234.82 270.79C234.82 265.267 230.343 260.79 224.82 260.79C219.297 260.79 214.82 265.267 214.82 270.79C214.82 276.313 219.297 280.79 224.82 280.79C230.343 280.79 234.82 276.313 234.82 270.79Z" fill="#FEF7E6"/>
<path d="M27.4609 280.79H187.461C192.984 280.79 197.461 276.313 197.461 270.79C197.461 265.267 192.984 260.79 187.461 260.79H27.4609C21.9381 260.79 17.4609 265.267 17.4609 270.79C17.4609 276.313 21.9381 280.79 27.4609 280.79Z" stroke="#FEF7E6" stroke-width="2" stroke-miterlimit="10"/>
<path d="M261.02 262.79C265.438 262.79 269.02 266.372 269.02 270.79C269.02 275.208 265.438 278.79 261.02 278.79C256.601 278.79 253.02 275.208 253.02 270.79C253.02 266.372 256.601 262.79 261.02 262.79ZM271.02 270.79C271.02 265.267 266.542 260.79 261.02 260.79C255.497 260.79 251.02 265.267 251.02 270.79C251.02 276.313 255.497 280.79 261.02 280.79C266.542 280.79 271.02 276.313 271.02 270.79Z" fill="#FEF7E6"/>
<path d="M308.57 270.79C308.57 265.267 304.093 260.79 298.57 260.79C293.047 260.79 288.57 265.267 288.57 270.79C288.57 276.313 293.047 280.79 298.57 280.79C304.093 280.79 308.57 276.313 308.57 270.79Z" fill="#FEF7E6"/>
</svg>
