<svg width="289" height="282" fill="none" xmlns="http://www.w3.org/2000/svg">
<path d="M198.023 0H278.023C283.546 0 288.023 4.47715 288.023 10C288.023 15.5228 283.546 20 278.023 20H198.023C192.501 20 188.023 15.5228 188.023 10C188.023 4.47715 192.501 0 198.023 0Z" fill="#FEF7E6"/>
<path d="M169.102 10C169.102 15.5228 164.624 20 159.102 20C153.579 20 149.102 15.5228 149.102 10C149.102 4.47715 153.579 0 159.102 0C164.624 0 169.102 4.47715 169.102 10Z" fill="#FEF7E6"/>
<path d="M121.602 10H-453.999" stroke="#FEF7E6" stroke-width="2" stroke-miterlimit="10"/>
<path d="M17.6445 95.3301C17.6445 100.853 13.1674 105.33 7.64453 105.33C2.12168 105.33 -2.35547 100.853 -2.35547 95.3301C-2.35547 89.8072 2.12168 85.3301 7.64453 85.3301C13.1674 85.3301 17.6445 89.8072 17.6445 95.3301Z" fill="#FEF7E6"/>
<path d="M53.793 85.3301H213.793C219.316 85.3301 223.793 89.8072 223.793 95.3301C223.793 100.853 219.316 105.33 213.793 105.33H53.793C48.2701 105.33 43.793 100.853 43.793 95.3301C43.793 89.8072 48.2701 85.3301 53.793 85.3301Z" stroke="#FEF7E6" stroke-width="2" stroke-miterlimit="10"/>
<path d="M-6.80762 143.82H132.652C138.175 143.82 142.652 148.297 142.652 153.82C142.652 159.343 138.175 163.82 132.652 163.82H-6.80762C-12.3305 163.82 -16.8076 159.343 -16.8076 153.82C-16.8076 148.297 -12.3305 143.82 -6.80762 143.82Z" fill="#FEF7E6"/>
<path d="M87.4922 222.3L-72.5078 222.3C-78.0307 222.3 -82.5078 217.823 -82.5078 212.3C-82.5078 206.777 -78.0307 202.3 -72.5078 202.3L87.4922 202.3C93.015 202.3 97.4922 206.777 97.4922 212.3C97.4922 217.823 93.015 222.3 87.4922 222.3Z" stroke="#FEF7E6" stroke-width="2" stroke-miterlimit="10"/>
<path d="M221.652 222.3H141.652C136.129 222.3 131.652 217.823 131.652 212.3C131.652 206.777 136.129 202.3 141.652 202.3H221.652C227.175 202.3 231.652 206.777 231.652 212.3C231.652 217.823 227.175 222.3 221.652 222.3Z" fill="#FEF7E6"/>
<path d="M53.2031 270.79C53.2031 265.267 57.6803 260.79 63.2031 260.79C68.726 260.79 73.2031 265.267 73.2031 270.79C73.2031 276.313 68.726 280.79 63.2031 280.79C57.6803 280.79 53.2031 276.313 53.2031 270.79Z" fill="#FEF7E6"/>
<path d="M260.562 280.79H100.562C95.0397 280.79 90.5625 276.313 90.5625 270.79C90.5625 265.267 95.0397 260.79 100.563 260.79H260.562C266.085 260.79 270.562 265.267 270.562 270.79C270.562 276.313 266.085 280.79 260.562 280.79Z" stroke="#FEF7E6" stroke-width="2" stroke-miterlimit="10"/>
<path d="M27.0039 262.79C22.5856 262.79 19.0039 266.372 19.0039 270.79V270.79C19.0039 275.208 22.5856 278.79 27.0039 278.79V278.79C31.4222 278.79 35.0039 275.208 35.0039 270.79V270.79C35.0039 266.372 31.4222 262.79 27.0039 262.79V262.79ZM17.0039 270.79C17.0039 265.267 21.4811 260.79 27.0039 260.79V260.79C32.5268 260.79 37.0039 265.267 37.0039 270.79V270.79C37.0039 276.313 32.5268 280.79 27.0039 280.79V280.79C21.4811 280.79 17.0039 276.313 17.0039 270.79V270.79Z" fill="#FEF7E6"/>
</svg>
